<svg
  xmlns="http://www.w3.org/2000/svg"
  viewBox="0 0 490.34 528.32"
  class="tee-image"
  [attr.fill]="fillColor"
>
  <title>tee_image</title>
  <g id="Layer_2" data-name="Layer 2">
    <g id="Layer_2-2" data-name="Layer 2">
      <path
        class="cls-1"
        d="M102.11,83.29,74.78,92.9q-20.29,39.17-40.35,81.94-17.09,36.57-32,71.65a256.72,256.72,0,0,0,96.92,40.64l9.79-28.62a1079.67,1079.67,0,0,1,43.39,134.76,1079.77,1079.77,0,0,1,27,153.83,600,600,0,0,0,121.12-29.41c35.61-12.78,53.07-23,93.08-35.8a592.44,592.44,0,0,1,94.15-21.79,1356.79,1356.79,0,0,0-54.61-167C416.81,252,399.41,214.42,382,180.28l28,12.66q8.66-20.85,18.06-42.24,8.34-19,16.77-37.22A517.87,517.87,0,0,0,342.61,47.94a514.91,514.91,0,0,0-59.37-24.42q-10.79,3.58-21.77,7.42-17.77,6.21-34.74,12.63A69.47,69.47,0,0,1,206.94,64c-13.31,9-26.12,10.73-33.56,11.66a89.8,89.8,0,0,1-40.53-4.39Z"
        transform="translate(0 -21.23)"
      />
      <path
        class="cls-2"
        d="M101.44,80.88c-8.5,3-17,5.9-25.5,9-3.05,1.11-3.51,2.15-5,5.06q-3,5.76-5.91,11.55-11.4,22.42-22.3,45.09Q20.43,197.89.29,245.22a2.6,2.6,0,0,0,.9,3.42A262,262,0,0,0,98.7,289.54a2.57,2.57,0,0,0,3.08-1.75l9.79-28.62h-4.82a1083.64,1083.64,0,0,1,62.19,226.3q4.93,30.69,8.06,61.62a2.56,2.56,0,0,0,3.16,2.41,607.92,607.92,0,0,0,120.12-29c19.11-6.82,37.63-15,56.45-22.59a566,566,0,0,1,66.72-22,594.58,594.58,0,0,1,65.08-13.32c1.35-.2,2-1.9,1.75-3.08A1365.51,1365.51,0,0,0,412.44,237.9Q399,208.12,384.13,179l-3.42,3.42,28,12.66a2.56,2.56,0,0,0,3.67-1.49q16.54-39.75,34.58-78.86a2.57,2.57,0,0,0-.39-3A523.22,523.22,0,0,0,294.35,24.79c-3.13-1.14-6.4-2.68-9.65-3.41s-6.35,1.14-9.34,2.15q-12,4-23.86,8.29c-7.91,2.82-15.8,5.69-23.65,8.67-4.69,1.78-6.87,7.26-10.19,10.92-19.12,21.13-50.19,26.59-77,19.64-3.28-.85-6.41-2.72-9.69-1.68s-6.72,2.62-10,3.92l-19.48,7.59c-3,1.16-1.68,6,1.33,4.82l15.84-6.17,10.45-4.07a24.4,24.4,0,0,1,3.42-1.33c1.6-.35.09-.26,1.7.26,22.62,7.35,50.11,6.21,70.84-6.17a70.91,70.91,0,0,0,15.69-12.72C224,52,226.52,46.33,231,44.64,246.4,38.8,262,33.31,277.6,28c1.77-.6,3.66-1.54,5.54-1.54s4,1,5.83,1.65q5.33,1.89,10.63,3.9,11.27,4.28,22.33,9.09,22.29,9.72,43.6,21.51A519.79,519.79,0,0,1,443,115.25l-.39-3q-18.3,39.69-35.08,80.05l3.67-1.49-28-12.66a2.52,2.52,0,0,0-3.42,3.42,1357.61,1357.61,0,0,1,89.11,220.4q8.92,29.22,16.52,58.82l1.75-3.08A579.21,579.21,0,0,0,362.3,490.31c-18.73,7.27-37,15.58-55.87,22.59q-24.71,9.21-50.2,16.1a628.25,628.25,0,0,1-77.4,15.68L182,547.1a1087,1087,0,0,0-49.38-231.33q-9.7-29.26-21-57.93a2.52,2.52,0,0,0-4.82,0L97,286.46l3.08-1.75A258.34,258.34,0,0,1,3.71,244.33l.9,3.42Q24,202.22,45.36,157.56,55.84,135.65,66.8,114q2.52-5,5.07-10c2-3.87,3.23-8.11,7.22-10,7.43-3.49,15.93-5.6,23.68-8.33C105.79,84.64,104.49,79.81,101.44,80.88Z"
        transform="translate(0 -21.23)"
      />
      <path
        class="cls-1"
        d="M235.78,39.68A44.32,44.32,0,0,1,206.64,90.6"
        transform="translate(0 -21.23)"
      />
      <path
        class="cls-2"
        d="M233.37,40.34A42.44,42.44,0,0,1,206,88.19c-3,1.06-1.72,5.89,1.33,4.82a47.58,47.58,0,0,0,30.89-54c-.62-3.15-5.44-1.82-4.82,1.33Z"
        transform="translate(0 -21.23)"
      />
      <path
        class="cls-1"
        d="M105.23,270a155.91,155.91,0,0,1-61.08-34.32"
        transform="translate(0 -21.23)"
      />
      <path
        class="cls-2"
        d="M105.9,267.58a155.84,155.84,0,0,1-60-33.68c-2.38-2.15-5.93,1.37-3.54,3.54a161.6,161.6,0,0,0,62.18,35c3.09.92,4.41-3.9,1.33-4.82Z"
        transform="translate(0 -21.23)"
      />
      <path
        class="cls-1"
        d="M53.4,191.73A299.29,299.29,0,0,1,86.94,227a299.13,299.13,0,0,1,22.22,31.51S97.8,221.17,86.85,201.65"
        transform="translate(0 -21.23)"
      />
      <path
        class="cls-2"
        d="M51.63,193.5A302.12,302.12,0,0,1,107,259.77c1.45,2.35,5.42.86,4.57-1.93-6-19.52-12.67-39.56-22.56-57.46-1.56-2.82-5.88-.3-4.32,2.52,9.69,17.53,16.23,37.15,22.06,56.27l4.57-1.93A306.79,306.79,0,0,0,55.17,190c-2.39-2.14-5.94,1.38-3.54,3.54Z"
        transform="translate(0 -21.23)"
      />
      <path
        class="cls-1"
        d="M368.1,141.24c2.12,18,14.79,40.85,14.79,40.85s-8-20.62-4.12-47.47,7-32,7-32"
        transform="translate(0 -21.23)"
      />
      <path
        class="cls-2"
        d="M365.6,141.24c1.93,14.71,8,29.18,15.13,42.11,1.34,2.42,5.6.77,4.57-1.93-5.2-13.66-6.08-29.67-4.39-44a194.64,194.64,0,0,1,5-27.46,27.26,27.26,0,0,1,2-6c1.67-2.76-2.65-5.28-4.32-2.52a27.25,27.25,0,0,0-2.42,6.86,202.51,202.51,0,0,0-5.07,27.3c-2,15.32-1.23,32.58,4.34,47.2l4.57-1.93c-6.69-12.11-12.64-25.8-14.45-39.59-.41-3.14-5.42-3.19-5,0Z"
        transform="translate(0 -21.23)"
      />
      <path class="cls-3" d="M88.19,0" transform="translate(0 -21.23)" />
      <path
        class="cls-2"
        d="M131.6,73.46a71.78,71.78,0,0,0,55.52,12.1c10.56-2.11,22.46-6.54,30.3-14.2,7.5-7.32,11.31-17.45,11.81-27.79.16-3.22-4.84-3.21-5,0-.49,10.07-4.68,19.87-12.64,26.3s-19.36,10.06-29.36,11.47a67.08,67.08,0,0,1-48.12-12.2c-2.63-1.87-5.13,2.47-2.52,4.32Z"
        transform="translate(0 -21.23)"
      />
    </g>
  </g>
</svg>